{
	"asset":{
		"generator":"Khronos glTF Blender I/O v4.3.47",
		"version":"2.0"
	},
	"extensionsUsed":[
		"KHR_lights_punctual"
	],
	"extensionsRequired":[
		"KHR_lights_punctual"
	],
	"extensions":{
		"KHR_lights_punctual":{
			"lights":[
				{
					"color":[
						1,
						1,
						1
					],
					"intensity":54351.41306588226,
					"type":"point",
					"name":"Light"
				}
			]
		}
	},
	"scene":0,
	"scenes":[
		{
			"extras":{
				"uuid":"9f553cc8-4450-457a-906d-da0041754e63",
				"assets reported":{}
			},
			"name":"Scene",
			"nodes":[
				0,
				1,
				3
			]
		}
	],
	"nodes":[
		{
			"extensions":{
				"KHR_lights_punctual":{
					"light":0
				}
			},
			"name":"Light",
			"rotation":[
				-0.28416627645492554,
				0.7269423007965088,
				0.34203392267227173,
				0.5232754945755005
			],
			"translation":[
				4.076245307922363,
				5.903861999511719,
				-1.0054539442062378
			]
		},
		{
			"camera":0,
			"name":"Camera",
			"rotation":[
				-0.20997299253940582,
				0.3857799470424652,
				0.09062844514846802,
				0.8937962055206299
			],
			"translation":[
				7.358891487121582,
				4.958309173583984,
				6.925790786743164
			]
		},
		{
			"mesh":0,
			"name":"Cube",
			"scale":[
				6.4683122634887695,
				0.4207150340080261,
				3.1449711322784424
			],
			"translation":[
				0.2236032634973526,
				-4.143603801727295,
				0
			]
		},
		{
			"children":[
				2
			],
			"mesh":1,
			"name":"Cylinder.001",
			"scale":[
				0.15459983050823212,
				0.15459983050823212,
				0.15459983050823212
			],
			"translation":[
				-0.03456902503967285,
				0.6406004428863525,
				0
			]
		}
	],
	"cameras":[
		{
			"name":"Camera",
			"perspective":{
				"aspectRatio":1.7777777777777777,
				"yfov":0.39959652046304894,
				"zfar":100,
				"znear":0.10000000149011612
			},
			"type":"perspective"
		}
	],
	"materials":[
		{
			"doubleSided":true,
			"name":"Material.001",
			"pbrMetallicRoughness":{
				"baseColorFactor":[
					0.19134896993637085,
					0.19134896993637085,
					0.19134896993637085,
					1
				],
				"metallicFactor":0
			}
		}
	],
	"meshes":[
		{
			"name":"Cube.001",
			"primitives":[
				{
					"attributes":{
						"POSITION":0,
						"NORMAL":1,
						"TEXCOORD_0":2,
						"TANGENT":3
					},
					"indices":4,
					"material":0
				}
			]
		},
		{
			"name":"Cylinder.001",
			"primitives":[
				{
					"attributes":{
						"POSITION":5,
						"NORMAL":6,
						"TEXCOORD_0":7
					},
					"indices":8,
					"material":0
				}
			]
		}
	],
	"accessors":[
		{
			"bufferView":0,
			"componentType":5126,
			"count":14,
			"max":[
				1,
				1,
				1
			],
			"min":[
				-1,
				-1,
				-1
			],
			"type":"VEC3"
		},
		{
			"bufferView":1,
			"componentType":5126,
			"count":14,
			"type":"VEC3"
		},
		{
			"bufferView":2,
			"componentType":5126,
			"count":14,
			"type":"VEC2"
		},
		{
			"bufferView":3,
			"componentType":5126,
			"count":14,
			"type":"VEC4"
		},
		{
			"bufferView":4,
			"componentType":5123,
			"count":36,
			"type":"SCALAR"
		},
		{
			"bufferView":5,
			"componentType":5126,
			"count":536,
			"max":[
				5.139014720916748,
				3.065556764602661,
				1
			],
			"min":[
				-5.139016628265381,
				-3.8644216060638428,
				-1
			],
			"type":"VEC3"
		},
		{
			"bufferView":6,
			"componentType":5126,
			"count":536,
			"type":"VEC3"
		},
		{
			"bufferView":7,
			"componentType":5126,
			"count":536,
			"type":"VEC2"
		},
		{
			"bufferView":8,
			"componentType":5123,
			"count":2676,
			"type":"SCALAR"
		}
	],
	"bufferViews":[
		{
			"buffer":0,
			"byteLength":168,
			"byteOffset":0,
			"target":34962
		},
		{
			"buffer":0,
			"byteLength":168,
			"byteOffset":168,
			"target":34962
		},
		{
			"buffer":0,
			"byteLength":112,
			"byteOffset":336,
			"target":34962
		},
		{
			"buffer":0,
			"byteLength":224,
			"byteOffset":448,
			"target":34962
		},
		{
			"buffer":0,
			"byteLength":72,
			"byteOffset":672,
			"target":34963
		},
		{
			"buffer":0,
			"byteLength":6432,
			"byteOffset":744,
			"target":34962
		},
		{
			"buffer":0,
			"byteLength":6432,
			"byteOffset":7176,
			"target":34962
		},
		{
			"buffer":0,
			"byteLength":4288,
			"byteOffset":13608,
			"target":34962
		},
		{
			"buffer":0,
			"byteLength":5352,
			"byteOffset":17896,
			"target":34963
		}
	],
	"buffers":[
		{
			"byteLength":23248,
			"uri":"%C3%BCt%C3%BC-c4c66a5e8b54fd259592bdda6b048eb2.bin"
		}
	]
}
